#!OML:ASF I:\Actors\actors\Patient Classification 2\Patient 1\Session 1\actor1.ASF
:FULLY-SPECIFIED
:DEGREES
363
root -1.27046 18.607 4.28425 12.782 -7.99228 3.12966
lowerback 23.8856 -1.6131 2.6356
upperback 4.09099 -1.31098 1.38035
thorax -8.82076 -0.684105 0.414595
lowerneck -9.31994 -3.83545 -4.20269
upperneck 2.17438 -4.52191 -2.61527
head 2.3327 -2.38841 -0.33452
rclavicle -3.65764e-014 9.54166e-015
rhumerus 36.3725 52.6644 -76.6113
rradius 146.443
rwrist -25.0163
rhand -16.1062 -25.7482
rfingers 7.12502
rthumb 10.0977 -55.4859
lclavicle -3.65764e-014 9.54166e-015
lhumerus 33.9411 -55.7624 80.3311
lradius 145.884
lwrist 42.7775
lhand -25.4769 -60.3257
lfingers 7.12502
lthumb 1.051 -30.3485
rfemur -25.4813 1.43303 11.7509
rtibia 25.4476
rfoot -18.9532 -6.58748
rtoes -10.8855
lfemur -26.0918 3.01856 -14.9215
ltibia 28.5299
lfoot -15.6764 8.26596
ltoes -56.0248
364
root -1.28956 18.6032 4.2721 12.8127 -7.87974 3.06936
lowerback 23.9471 -1.62989 2.67316
upperback 4.09375 -1.31535 1.43264
thorax -8.84944 -0.686457 0.453607
lowerneck -9.57923 -3.64307 -4.0869
upperneck 2.29431 -4.26355 -2.52274
head 2.41874 -2.25946 -0.318963
rclavicle 1.39149e-014 4.77083e-015
rhumerus 36.0297 52.7961 -77.0091
rradius 146.41
rwrist -25.3646
rhand -15.9932 -25.4413
rfingers 7.12502
rthumb 10.2067 -55.1737
lclavicle 1.39149e-014 4.77083e-015
lhumerus 33.8742 -55.5027 80.3726
lradius 146.008
lwrist 43.4111
lhand -25.4121 -59.6821
lfingers 7.12502
lthumb 1.1136 -29.7052
rfemur -25.6023 1.34572 11.9074
rtibia 25.6075
rfoot -19.0227 -6.5369
rtoes -10.6988
lfemur -26.1893 2.93576 -14.759
ltibia 28.5757
lfoot -15.6427 8.27207
ltoes -56.0357
365
root -1.30757 18.5989 4.25948 12.866 -7.7628 3.01036
lowerback 23.9845 -1.63148 2.65438
upperback 4.10159 -1.31212 1.51596
thorax -8.85786 -0.683092 0.555972
lowerneck -9.85493 -3.45916 -3.90774
upperneck 2.44359 -4.01779 -2.55059
head 2.51399 -2.1407 -0.35349
rclavicle 7.55382e-015 1.98785e-014
rhumerus 35.8682 53.1737 -77.1582
rradius 146.569
rwrist -25.5278
rhand -15.9212 -25.8321
rfingers 7.12502
rthumb 10.2762 -55.5611
lclavicle 7.55382e-015 1.98785e-014
lhumerus 34.0543 -55.7097 80.027
lradius 146.274
lwrist 44.527
lhand -25.3223 -59.105
lfingers 7.12502
lthumb 1.20032 -29.1287
rfemur -25.7352 1.25807 12.057
rtibia 25.7521
rfoot -19.096 -6.50101
rtoes -10.762
lfemur -26.3334 2.9332 -14.6221
ltibia 28.6288
lfoot -15.5583 8.21908
ltoes -56.0982
366
root -1.32461 18.5949 4.24674 12.9108 -7.62179 2.95988
lowerback 24.0047 -1.65702 2.66091
upperback 4.11148 -1.33515 1.5894
thorax -8.85601 -0.692907 0.640664
lowerneck -9.99683 -3.2819 -3.80464
upperneck 2.53006 -3.78401 -2.53122
head 2.56659 -2.02488 -0.356424
rclavicle 2.46493e-014 1.03368e-014
rhumerus 35.7695 52.573 -77.7759
rradius 146.091
rwrist -26.8901
rhand -15.3585 -24.8582
rfingers 7.12502
rthumb 10.819 -54.5596
lclavicle 2.46493e-014 1.03368e-014
lhumerus 33.9962 -55.3878 80.0288
lradius 146.359
lwrist 44.6456
lhand -25.3863 -58.4277
lfingers 7.12502
lthumb 1.13843 -28.451
rfemur -25.844 1.18443 12.1946
rtibia 25.8763
rfoot -19.1333 -6.53283
rtoes -10.9986
lfemur -26.4733 2.89268 -14.4967
ltibia 28.6862
lfoot -15.4889 8.19382
ltoes -56.2115
367
root -1.34159 18.5914 4.23328 12.9191 -7.44726 2.88078
lowerback 24.1069 -1.6938 2.77368
upperback 4.12015 -1.34766 1.61019
thorax -8.90181 -0.701597 0.605593
lowerneck -10.1417 -3.11231 -3.77651
upperneck 2.63802 -3.56076 -2.30992
head 2.63312 -1.90813 -0.282059
rclavicle 3.1408e-014 1.59028e-015
rhumerus 36.2755 50.5681 -78.5857
rradius 145.225
rwrist -29.8219
rhand -14.7987 -24.8945
rfingers 7.12502
rthumb 11.3589 -54.5668
lclavicle 3.1408e-014 1.59028e-015
lhumerus 34.1155 -54.8028 79.8823
lradius 146.26
lwrist 44.4233
lhand -25.7435 -58.0039
lfingers 7.12502
lthumb 0.793488 -28.0256
rfemur -25.8986 1.13744 12.3569
rtibia 25.9829
rfoot -19.2089 -6.54886
rtoes -10.743
lfemur -26.559 2.73409 -14.3074
ltibia 28.7385
lfoot -15.4941 8.21299
ltoes -56.2082
368
root -1.35788 18.5885 4.21967 12.9456 -7.24625 2.80216
lowerback 24.2215 -1.71835 2.85857
upperback 4.13102 -1.35001 1.63622
thorax -8.95082 -0.704597 0.589407
lowerneck -10.3565 -2.95414 -3.79022
upperneck 2.73985 -3.34952 -2.00145
head 2.71317 -1.79465 -0.173422
rclavicle 1.07344e-014 -9.54166e-015
rhumerus 35.8451 52.5633 -78.4057
rradius 145.421
rwrist -26.5845
rhand -15.8285 -24.7824
rfingers 7.12502
rthumb 10.3656 -54.5069
lclavicle 1.07344e-014 -9.54166e-015
lhumerus 34.4303 -54.3587 79.5435
lradius 146.151
lwrist 44.4232
lhand -25.8658 -57.8508
lfingers 7.12502
lthumb 0.675348 -27.8721
rfemur -25.9413 1.08753 12.5096
rtibia 26.0412
rfoot -19.3409 -6.51324
rtoes -9.89205
lfemur -26.6886 2.57869 -14.1244
ltibia 28.8025
lfoot -15.4596 8.25181
ltoes -56.2923
369
root -1.37539 18.5856 4.20728 13.0117 -7.06012 2.75011
lowerback 24.2689 -1.71468 2.81296
upperback 4.15267 -1.34848 1.69856
thorax -8.94888 -0.701312 0.684614
lowerneck -10.6275 -2.80244 -3.81181
upperneck 2.83944 -3.14348 -1.70691
head 2.80266 -1.68419 -0.0679775
rclavicle 4.6118e-014 -6.36111e-015
rhumerus 37.6795 53.5825 -77.4952
rradius 143.971
rwrist -22.7961
rhand -18.018 -25.0391
rfingers 7.12502
rthumb 8.25294 -54.8579
lclavicle 4.6118e-014 -6.36111e-015
lhumerus 34.7515 -54.0114 79.1826
lradius 146.065
lwrist 44.2521
lhand -25.5886 -57.5463
lfingers 7.12502
lthumb 0.943081 -27.5686
rfemur -25.9772 1.01607 12.639
rtibia 25.9871
rfoot -19.3598 -6.53066
rtoes -9.38745
lfemur -26.8975 2.50388 -13.9942
ltibia 28.9254
lfoot -15.4119 8.26609
ltoes -56.4842
370
root -1.38734 18.5835 4.19374 13.0483 -6.78531 2.48276
lowerback 24.371 -1.76721 3.04938
upperback 4.21232 -1.34223 1.80447
thorax -8.93786 -0.703146 0.665927
lowerneck -10.9544 -2.64868 -3.79856
upperneck 2.95751 -2.93797 -1.40023
head 2.90845 -1.57301 0.0356414
rclavicle 2.18663e-014 6.36111e-015
rhumerus 38.8209 53.5158 -76.9565
rradius 143.22
rwrist -21.3038
rhand -19.3085 -25.0439
rfingers 7.12502
rthumb 7.00731 -54.9079
lclavicle 2.18663e-014 6.36111e-015
lhumerus 35.2408 -53.7485 78.5826
lradius 145.98
lwrist 43.6712
lhand -25.4711 -57.1803
lfingers 7.12502
lthumb 1.05657 -27.2032
rfemur -25.9715 0.775516 13.0451
rtibia 26.0077
rfoot -19.2958 -6.48197
rtoes -9.59145
lfemur -27.0105 2.42457 -13.6289
ltibia 28.9796
lfoot -15.3423 8.20084
ltoes -56.5709
371
root -1.38399 18.5832 4.17542 13.0058 -6.3119 1.79965
lowerback 24.7028 -1.98402 3.96864
upperback 4.26464 -1.35334 1.96871
thorax -9.06751 -0.732662 0.334335
lowerneck -11.3206 -2.51891 -3.84043
upperneck 3.11456 -2.75705 -1.0666
head 3.03708 -1.47376 0.156852
rclavicle -6.36111e-015 1.59028e-015
rhumerus 39.1936 52.6892 -76.8327
rradius 143.08
rwrist -21.4055
rhand -19.9117 -24.7359
rfingers 7.12502
rthumb 6.4251 -54.6184
lclavicle -6.36111e-015 1.59028e-015
lhumerus 35.8008 -53.5677 77.8418
lradius 145.852
lwrist 42.7127
lhand -25.5459 -57.1987
lfingers 7.12502
lthumb 0.984312 -27.2213
rfemur -25.8059 0.28654 13.9431
rtibia 26.0455
rfoot -19.1966 -6.2767
rtoes -9.91021
lfemur -27.0102 2.27369 -12.8099
ltibia 29.0165
lfoot -15.2457 8.06281
ltoes -56.6283
372
root -1.41763 18.5811 4.166 13.1565 -6.36336 2.29488
lowerback 24.7003 -1.7534 3.06663
upperback 4.19983 -1.28846 1.94103
thorax -9.11993 -0.676426 0.799767
lowerneck -11.6795 -2.40795 -3.97591
upperneck 3.37083 -2.5864 -0.746977
head 3.20071 -1.38219 0.290531
rclavicle -3.73715e-014 -1.11319e-014
rhumerus 38.2497 51.0485 -78.0412
rradius 142.809
rwrist -25.0332
rhand -19.1929 -20.2773
rfingers 7.12502
rthumb 7.11897 -50.1376
lclavicle -3.73715e-014 -1.11319e-014
lhumerus 35.9636 -53.4611 77.4954
lradius 145.654
lwrist 41.4782
lhand -25.1046 -57.3742
lfingers 7.12502
lthumb 1.41053 -27.3991
rfemur -26.1302 0.5015 13.4289
rtibia 26.1282
rfoot -19.333 -6.4728
rtoes -9.83337
lfemur -27.2833 2.18789 -13.2488
ltibia 29.0058
lfoot -15.2002 8.14087
ltoes -56.6772
